<?xml version="1.0" encoding="UTF-8" standalone="no"?>
<!-- Generator: Adobe Illustrator 16.0.0, SVG Export Plug-In . SVG Version: 6.00 Build 0)  -->

<svg
   xmlns:dc="http://purl.org/dc/elements/1.1/"
   xmlns:cc="http://creativecommons.org/ns#"
   xmlns:rdf="http://www.w3.org/1999/02/22-rdf-syntax-ns#"
   xmlns:svg="http://www.w3.org/2000/svg"
   xmlns="http://www.w3.org/2000/svg"
   xmlns:sodipodi="http://sodipodi.sourceforge.net/DTD/sodipodi-0.dtd"
   xmlns:inkscape="http://www.inkscape.org/namespaces/inkscape"
   version="1.1"
   id="Layer_1"
   x="0px"
   y="0px"
   width="412"
   height="412"
   viewBox="0 0 412 412"
   enable-background="new 0 0 512 512"
   xml:space="preserve"
   inkscape:version="0.48.4 r9939"
   sodipodi:docname="instagram.svg"><metadata
     id="metadata15"><rdf:RDF><cc:Work
         rdf:about=""><dc:format>image/svg+xml</dc:format><dc:type
           rdf:resource="http://purl.org/dc/dcmitype/StillImage" /><dc:title></dc:title></cc:Work></rdf:RDF></metadata><defs
     id="defs13" /><sodipodi:namedview
     pagecolor="#ffffff"
     bordercolor="#666666"
     borderopacity="1"
     objecttolerance="10"
     gridtolerance="10"
     guidetolerance="10"
     inkscape:pageopacity="0"
     inkscape:pageshadow="2"
     inkscape:window-width="1920"
     inkscape:window-height="1052"
     id="namedview11"
     showgrid="false"
     inkscape:zoom="1.3037281"
     inkscape:cx="162.27653"
     inkscape:cy="242.48862"
     inkscape:window-x="1920"
     inkscape:window-y="0"
     inkscape:window-maximized="1"
     inkscape:current-layer="Layer_1" /><path
     d="m 348.64,1.2103758 -280.16,0 C 32.072,1.2103758 0,27.662376 0,64.070376 L 0,344.23038 c 0,36.408 32.072,68.98 68.48,68.98 8.254355,10.49858 34.78442,-2.49471 280.159,-10e-4 36.408,0 63.36,-32.572 63.36,-68.98 l 0,-280.159004 C 412,27.662376 385.048,1.2103758 348.64,1.2103758 z"
     id="path9"
     inkscape:connector-curvature="0"
     sodipodi:nodetypes="ssssccscs" /><path
     style="fill:#ffffff"
     d="m 113.81738,345.40561 c -6.40029,-0.94744 -11.09336,-2.52098 -17.654575,-5.91934 -4.954194,-2.56601 -7.38576,-4.43658 -12.926144,-9.94389 -6.123532,-6.08696 -7.179739,-7.51415 -10.288667,-13.90239 -6.337796,-13.02294 -5.939507,-7.45345 -5.939507,-83.05591 l 0,-66.44472 40.510943,-0.17483 c 22.28101,-0.0962 40.51094,-0.0301 40.51094,0.14663 0,0.1768 -1.19576,2.1715 -2.65722,4.43268 -3.27004,5.05938 -6.24518,12.10031 -8.31568,19.67974 -1.35813,4.97161 -1.56852,7.30513 -1.55752,17.27423 0.0108,9.79567 0.24012,12.3585 1.52736,17.07038 3.69654,13.53091 9.94099,24.19873 19.58835,33.46403 9.63525,9.25367 19.27371,14.71307 31.95561,18.10021 5.65721,1.51093 8.00771,1.76153 16.75073,1.78577 11.42976,0.0316 16.03086,-0.76271 25.90984,-4.4734 17.07884,-6.41507 32.47212,-21.14427 39.5979,-37.88962 4.10586,-9.64861 5.53654,-16.78522 5.55674,-27.71836 0.0258,-13.96116 -2.76114,-24.68707 -9.37686,-36.08832 -1.67199,-2.88144 -3.03998,-5.40094 -3.03998,-5.59889 0,-0.19796 18.22991,-0.28125 40.51093,-0.18508 l 40.51094,0.17483 0,66.44472 c 0,75.60246 0.39829,70.03297 -5.93951,83.05591 -3.10892,6.38824 -4.16513,7.81543 -10.28867,13.90239 -5.55545,5.5223 -7.97735,7.38337 -13.02771,10.01099 -3.41201,1.7752 -8.59877,3.9063 -11.52614,4.73578 l -5.32246,1.5081 -90.51399,0.10334 c -49.7827,0.0568 -92.33274,-0.16592 -94.55565,-0.49498 z m 79.91713,-84.33448 c -19.28929,-4.19693 -35.80249,-20.09617 -41.10511,-39.57685 -2.06044,-7.56955 -2.04825,-20.80853 0.0259,-28.12657 5.43323,-19.16975 20.44744,-34.13449 39.3577,-39.22805 7.35847,-1.98203 20.03798,-1.95311 27.54715,0.0627 11.22997,3.01484 21.80067,9.83975 29.02624,18.74061 4.62089,5.69227 9.62989,16.28433 11.02953,23.32305 1.5382,7.73554 1.04593,20.12614 -1.0658,26.82585 -3.29501,10.45388 -9.81588,20.26418 -17.81925,26.80813 -5.29206,4.32706 -16.25759,9.70153 -22.66059,11.10652 -5.9256,1.30023 -18.50309,1.33356 -24.33577,0.0645 z m 24.96711,-15.56864 c 6.70127,-2.33047 11.5428,-5.46682 16.45426,-10.6591 9.47486,-10.0166 13.16561,-23.79377 9.84853,-36.76345 -3.49481,-13.66459 -12.42766,-23.56803 -25.78326,-28.58476 -4.54215,-1.70614 -5.95371,-1.91007 -13.22115,-1.91007 -7.26744,0 -8.67899,0.20393 -13.22114,1.91007 -13.35561,5.01673 -22.28846,14.92017 -25.78327,28.58476 -4.8736,19.05559 5.56177,39.09552 24.32915,46.72139 2.29181,0.93125 5.76854,1.97969 7.72608,2.32987 5.45399,0.97566 14.26088,0.24572 19.6508,-1.62871 z M 66.845433,135.12052 c 0.343147,-24.80323 0.612193,-26.78726 4.907174,-36.18653 3.20612,-7.016378 6.912888,-12.126914 12.964605,-17.874336 l 5.343527,-5.074838 0.176627,29.652604 0.176627,29.6526 5.416933,0 5.416934,0 0,-32.46209 0,-32.462098 1.86452,-0.765381 c 1.02549,-0.420959 2.8561,-1.046883 4.06804,-1.390943 l 2.20353,-0.62556 0,33.853042 0,33.85303 5.76306,0 5.76306,0 0,-34.57837 0,-34.578375 3.72904,0 3.72905,0 0,34.578375 0,34.57837 5.76306,0 5.76306,0 0,-34.59973 0,-34.599723 79.49637,0.200543 79.49637,0.200546 5.32246,1.50546 c 2.92737,0.828004 8.11413,2.957904 11.52614,4.733113 5.05036,2.627622 7.47226,4.48869 13.02771,10.010976 6.12587,6.089288 7.1783,7.511714 10.28616,13.902402 5.5624,11.437973 5.74711,12.602063 6.10508,38.476913 l 0.31189,22.54375 -44.54734,0 -44.54733,0 -3.48966,-3.13937 c -16.27087,-14.63762 -39.34069,-20.89216 -60.87439,-16.50387 -12.08734,2.46324 -21.73142,7.10358 -31.80565,15.30357 l -5.33158,4.33967 -44.16848,0 -44.168487,0 0.31189,-22.54375 z m 247.642677,1.22733 c 1.28502,-0.53692 2.96001,-1.98617 3.72221,-3.22055 1.31879,-2.13581 1.37687,-3.12387 1.20135,-20.43412 l -0.18444,-18.189805 -2.53257,-2.319921 -2.53257,-2.319921 -17.9871,0 -17.98712,0 -2.53257,2.319921 -2.53257,2.319921 -0.18444,18.189805 c -0.26162,25.80194 -1.42333,24.56399 23.08897,24.60434 12.54708,0.0207 16.6428,-0.19005 18.46085,-0.94967 z"
     id="path3058"
     inkscape:connector-curvature="0" /></svg>